<svg fill="none" height="512" viewBox="0 0 36 36" width="512" xmlns="http://www.w3.org/2000/svg"><g id="36 Multicolor / Flag / mc_36_flag_sweden"><g id="mc_36_flag_Sweden"><path id="Oval" d="m18 36c9.9411 0 18-8.0589 18-18 0-9.94113-8.0589-18-18-18-9.94113 0-18 8.05887-18 18 0 9.9411 8.05887 18 18 18z" fill="#ffda44"/><path id="Shape" clip-rule="evenodd" d="m35.847 15.652h-21.76v-15.224c1.26-.278 2.569-.428 3.913-.428 9.146 0 16.697 6.82 17.847 15.652zm-26.45498-13.452v13.452h-9.239005c.747-5.82 4.297005-10.767 9.239005-13.452zm0 18.148h-9.239005c.758 5.82 4.296005 10.767 9.239995 13.464v-13.464zm4.69498 15.224v-15.224h.001 21.76c-1.151 8.832-8.703 15.652-17.848 15.652-1.343 0-2.653-.148-3.913-.428z" fill="#0052b4" fill-rule="evenodd"/></g></g></svg>